<?xml version="1.0"?>
<svg xmlns="http://www.w3.org/2000/svg" xmlns:xlink="http://www.w3.org/1999/xlink" xmlns:svgjs="http://svgjs.com/svgjs" version="1.1" width="512" height="512" x="0" y="0" viewBox="0 0 128 128" style="enable-background:new 0 0 512 512" xml:space="preserve" class=""><g><g xmlns="http://www.w3.org/2000/svg"><path d="m64 55a1.749 1.749 0 0 1 -1.75-1.75v-46.75a1.75 1.75 0 0 1 3.5 0v46.75a1.749 1.749 0 0 1 -1.75 1.75z" fill="#0b6178" data-original="#bebec3" style="" class=""/><path d="m61.002 41.41h5.996v14.715h-5.996z" fill="#ffffff" data-original="#eaeaf0" style="" class=""/><path d="m115.278 67.855c-9.75-22-19.75-26.808-32.509-21.7a13.008 13.008 0 0 0 -5.956 4.6h-25.626a13.008 13.008 0 0 0 -5.956-4.6c-12.759-5.105-22.759-.3-32.509 21.7s-7.375 48.625 2.5 52.808c9.074 3.8 19.081-5.981 25.356-16.418a12.078 12.078 0 0 1 10.336-5.912h26.172a12.078 12.078 0 0 1 10.336 5.912c6.275 10.437 16.282 20.219 25.356 16.418 9.875-4.183 12.25-30.808 2.5-52.808z" fill="#ff0066" data-original="#df6379" style="" class=""/><path d="m115.4 101.925h-.093a1.752 1.752 0 0 1 -1.657-1.84 63.145 63.145 0 0 0 -.886-13.817 1.75 1.75 0 1 1 3.449-.6 66.726 66.726 0 0 1 .933 14.6 1.75 1.75 0 0 1 -1.746 1.657z" fill="#ffffff" data-original="#b24f60" style="" class=""/><g fill="#eaeaf0"><path d="m43.813 71h-7v-7h-6v7h-7v6h7v7h6v-7h7z" fill="#ffffff" data-original="#eaeaf0" style="" class=""/><path d="m71.114 90.915h-14.228a1.75 1.75 0 0 1 0-3.5h14.228a1.75 1.75 0 0 1 0 3.5z" fill="#ffffff" data-original="#eaeaf0" style="" class=""/><g><circle cx="91.021" cy="64.833" r="4" fill="#ffffff" data-original="#000000" style="" class=""/><circle cx="91.021" cy="83.167" r="4" fill="#ffffff" data-original="#000000" style="" class=""/><circle cx="100.187" cy="74" r="4" fill="#ffffff" data-original="#000000" style="" class=""/><circle cx="81.854" cy="74" r="4" fill="#ffffff" data-original="#000000" style="" class=""/></g></g></g></g></svg>
