<?xml version="1.0"?>
<svg xmlns="http://www.w3.org/2000/svg" xmlns:xlink="http://www.w3.org/1999/xlink" xmlns:svgjs="http://svgjs.com/svgjs" version="1.1" width="512" height="512" x="0" y="0" viewBox="0 0 512.00049 512" style="enable-background:new 0 0 512 512" xml:space="preserve" class=""><g><path xmlns="http://www.w3.org/2000/svg" d="m437.019531 74.980469c-48.355469-48.351563-112.644531-74.980469-181.023437-74.980469-68.382813 0-132.667969 26.628906-181.023438 74.980469-42.667968 42.667969-68.96875 99.230469-74.058594 159.265625-4.863281 57.394531 9.777344 114.917968 41.292969 162.660156l-7.550781 63.777344c-.542969 4.5625 1.039062 9.121094 4.289062 12.371094s7.804688 4.835937 12.371094 4.289062l63.777344-7.554688c41.742188 27.554688 90.949219 42.210938 141.019531 42.210938 7.199219 0 14.425781-.304688 21.640625-.917969 60.035156-5.089843 116.597656-31.390625 159.265625-74.058593 48.351563-48.351563 74.980469-112.640626 74.980469-181.023438 0-68.378906-26.628906-132.664062-74.980469-181.019531zm-21.214843 340.832031c-77.355469 77.355469-198.636719 88.328125-288.386719 26.101562-2.519531-1.75-5.503907-2.675781-8.546875-2.675781-.585938 0-1.175782.035157-1.761719.105469l-50.425781 5.96875 5.972656-50.421875c.429688-3.636719-.484375-7.304687-2.570312-10.3125-62.230469-89.746094-51.253907-211.027344 26.101562-288.386719 88.121094-88.113281 231.5-88.113281 319.617188 0 88.117187 88.121094 88.117187 231.503906 0 319.621094zm0 0" fill="#ffffff" data-original="#000000" style="" class=""/><path xmlns="http://www.w3.org/2000/svg" d="m408.914062 330.425781-45.976562-45.976562c-5.667969-5.667969-13.199219-8.789063-21.214844-8.789063-8.011718 0-15.546875 3.121094-21.214844 8.789063l-7.351562 7.355469c-7.902344 7.898437-20.734375 8.4375-28.734375 1.242187l-65.472656-65.472656c-7.191407-8-6.652344-20.832031 1.246093-28.730469l7.355469-7.355469c5.667969-5.664062 8.789063-13.199219 8.789063-21.214843 0-8.011719-3.121094-15.546876-8.789063-21.210938l-45.976562-45.976562c-11.695313-11.695313-30.726563-11.699219-42.425781 0l-23.199219 23.203124c-17.96875 17.964844-27.867188 41.855469-27.867188 67.269532 0 25.410156 9.898438 49.300781 27.867188 67.269531l135.222656 135.222656c17.96875 17.96875 41.859375 27.867188 67.269531 27.867188 25.414063 0 49.300782-9.898438 67.269532-27.867188l23.203124-23.199219c5.667969-5.667968 8.789063-13.199218 8.789063-21.214843-.003906-8.011719-3.125-15.546875-8.789063-21.210938zm-136.53125 44.414063-135.222656-135.226563c-12.304687-12.300781-19.078125-28.65625-19.078125-46.054687 0-17.398438 6.773438-33.753906 19.078125-46.058594l23.199219-23.199219 45.976563 45.976563-7.355469 7.355468c-19.527344 19.523438-20.363281 50.488282-1.902344 70.484376.136719.144531.273437.289062.417969.429687l65.953125 65.957031c.144531.140625.285156.28125.433593.414063 19.996094 18.460937 50.957032 17.628906 70.484376-1.898438l7.359374-7.355469 45.976563 45.976563-23.203125 23.199219c-12.304688 12.300781-28.660156 19.078125-46.058594 19.078125-17.394531 0-33.753906-6.777344-46.058594-19.078125zm0 0" fill="#ffffff" data-original="#000000" style="" class=""/></g></svg>
